<?xml version="1.0" encoding="UTF-8" standalone="no"?>
<svg
   xmlns:dc="http://purl.org/dc/elements/1.1/"
   xmlns:cc="http://creativecommons.org/ns#"
   xmlns:rdf="http://www.w3.org/1999/02/22-rdf-syntax-ns#"
   xmlns:svg="http://www.w3.org/2000/svg"
   xmlns="http://www.w3.org/2000/svg"
   xmlns:xlink="http://www.w3.org/1999/xlink"
   xmlns:sodipodi="http://sodipodi.sourceforge.net/DTD/sodipodi-0.dtd"
   xmlns:inkscape="http://www.inkscape.org/namespaces/inkscape"
   id="svg59453"
   sodipodi:docname="paisaje.svg"
   viewBox="0 0 1057.6 446.09"
   version="1.1"
   inkscape:version="1.0.1 (3bc2e813f5, 2020-09-07)">
  <defs
     id="defs59455">
    <linearGradient
       id="linearGradient4387"
       inkscape:collect="always">
      <stop
         id="stop4389"
         style="stop-color:#eeeeec"
         offset="0" />
      <stop
         id="stop4391"
         style="stop-color:#555753"
         offset="1" />
    </linearGradient>
    <linearGradient
       id="linearGradient4051"
       inkscape:collect="always">
      <stop
         id="stop4053"
         style="stop-color:#c4a000"
         offset="0" />
      <stop
         id="stop4055"
         style="stop-color:#c4a000;stop-opacity:0"
         offset="1" />
    </linearGradient>
    <linearGradient
       id="linearGradient60166"
       inkscape:collect="always">
      <stop
         id="stop60168"
         style="stop-color:#6c981a"
         offset="0" />
      <stop
         id="stop60170"
         style="stop-color:#b8cf22"
         offset="1" />
    </linearGradient>
    <linearGradient
       id="linearGradient60121"
       y2="365.06"
       gradientUnits="userSpaceOnUse"
       x2="598.4"
       gradientTransform="matrix(0.97277218,0,0,1.1118264,328.55485,133.99905)"
       y1="240.32"
       x1="702.16"
       inkscape:collect="always">
      <stop
         id="stop60117"
         style="stop-color:#618817"
         offset="0" />
      <stop
         id="stop60119"
         style="stop-color:#82b71f"
         offset="1" />
    </linearGradient>
    <linearGradient
       id="linearGradient60129"
       y2="308.77"
       gradientUnits="userSpaceOnUse"
       x2="548.71"
       gradientTransform="matrix(1.0047639,0,0,1.1483911,307.23377,113.43137)"
       y1="479.61"
       x1="45.255"
       inkscape:collect="always">
      <stop
         id="stop60125"
         style="stop-color:#d2e748"
         offset="0" />
      <stop
         id="stop60127"
         style="stop-color:#b4cb1b"
         offset="1" />
    </linearGradient>
    <linearGradient
       id="linearGradient60172"
       y2="322.82"
       xlink:href="#linearGradient60166"
       gradientUnits="userSpaceOnUse"
       x2="256.68"
       gradientTransform="matrix(2.0195754,0,0,1.1483911,-39.073172,113.43137)"
       y1="266.36"
       x1="37"
       inkscape:collect="always" />
    <linearGradient
       id="linearGradient60276"
       y2="329.5"
       gradientUnits="userSpaceOnUse"
       x2="342.7"
       gradientTransform="matrix(1.0047639,0,0,1.1483911,148.48107,-6.1448579)"
       y1="287.28"
       x1="342.7"
       inkscape:collect="always">
      <stop
         id="stop60272"
         style="stop-color:#ffffff"
         offset="0" />
      <stop
         id="stop60274"
         style="stop-color:#d3d7cf;stop-opacity:0"
         offset="1" />
    </linearGradient>
    <linearGradient
       id="linearGradient4345"
       y2="219.92"
       gradientUnits="userSpaceOnUse"
       x2="700.75"
       gradientTransform="translate(-179.64,-64.597)"
       y1="223.63"
       x1="669.63"
       inkscape:collect="always">
      <stop
         id="stop60155"
         style="stop-color:#325804"
         offset="0" />
      <stop
         id="stop60157"
         style="stop-color:#325804;stop-opacity:0"
         offset="1" />
    </linearGradient>
    <linearGradient
       id="linearGradient4393"
       y2="432.58"
       xlink:href="#linearGradient4387"
       gradientUnits="userSpaceOnUse"
       x2="900.25"
       gradientTransform="matrix(1.0047639,0,0,1.1483911,-14.583058,-78.728918)"
       y1="429.36"
       x1="855.5"
       inkscape:collect="always" />
    <linearGradient
       id="linearGradient4401"
       y2="432.58"
       xlink:href="#linearGradient4387"
       gradientUnits="userSpaceOnUse"
       x2="900.25"
       gradientTransform="matrix(1.0637435,0,0,1.2158017,-39.616749,-102.32491)"
       y1="429.36"
       x1="855.5"
       inkscape:collect="always" />
    <linearGradient
       id="linearGradient4455"
       y2=".68848"
       xlink:href="#linearGradient4051"
       gradientUnits="userSpaceOnUse"
       x2="165.09"
       gradientTransform="translate(-34,21)"
       y1="134.07"
       x1="129.09"
       inkscape:collect="always" />
    <linearGradient
       id="linearGradient4619"
       y2="477.86"
       gradientUnits="userSpaceOnUse"
       x2="995.18"
       y1="448.36"
       x1="938"
       inkscape:collect="always"
       gradientTransform="matrix(1.0047639,0,0,1.1483911,-2.5047912,-78.728918)">
      <stop
         id="stop4615"
         style="stop-color:#8f5902"
         offset="0" />
      <stop
         id="stop4617"
         style="stop-color:#c17d11"
         offset="1" />
    </linearGradient>
    <linearGradient
       id="linearGradient4626"
       y2="322.82"
       xlink:href="#linearGradient60166"
       gradientUnits="userSpaceOnUse"
       x2="254.69"
       gradientTransform="matrix(-2.0195754,0,0,1.1483911,951.93045,76.68285)"
       y1="322.82"
       x1="153.42"
       inkscape:collect="always" />
    <linearGradient
       inkscape:collect="always"
       xlink:href="#linearGradient4051"
       id="linearGradient2846"
       gradientUnits="userSpaceOnUse"
       gradientTransform="translate(-34,21)"
       x1="129.09"
       y1="134.07"
       x2="165.09"
       y2=".68848" />
    <linearGradient
       inkscape:collect="always"
       xlink:href="#linearGradient4051"
       id="linearGradient2848"
       gradientUnits="userSpaceOnUse"
       gradientTransform="translate(-34,21)"
       x1="129.09"
       y1="134.07"
       x2="165.09"
       y2=".68848" />
    <linearGradient
       inkscape:collect="always"
       xlink:href="#linearGradient4051"
       id="linearGradient2850"
       gradientUnits="userSpaceOnUse"
       gradientTransform="translate(-34,21)"
       x1="129.09"
       y1="134.07"
       x2="165.09"
       y2=".68848" />
    <linearGradient
       inkscape:collect="always"
       xlink:href="#linearGradient4051"
       id="linearGradient2852"
       gradientUnits="userSpaceOnUse"
       gradientTransform="translate(-34,21)"
       x1="129.09"
       y1="134.07"
       x2="165.09"
       y2=".68848" />
    <linearGradient
       inkscape:collect="always"
       xlink:href="#linearGradient4051"
       id="linearGradient2854"
       gradientUnits="userSpaceOnUse"
       gradientTransform="translate(-34,21)"
       x1="129.09"
       y1="134.07"
       x2="165.09"
       y2=".68848" />
    <linearGradient
       inkscape:collect="always"
       xlink:href="#linearGradient4051"
       id="linearGradient2856"
       gradientUnits="userSpaceOnUse"
       gradientTransform="translate(-34,21)"
       x1="129.09"
       y1="134.07"
       x2="165.09"
       y2=".68848" />
    <linearGradient
       inkscape:collect="always"
       xlink:href="#linearGradient4051"
       id="linearGradient2858"
       gradientUnits="userSpaceOnUse"
       gradientTransform="translate(-34,21)"
       x1="129.09"
       y1="134.07"
       x2="165.09"
       y2=".68848" />
    <linearGradient
       inkscape:collect="always"
       xlink:href="#linearGradient4051"
       id="linearGradient2860"
       gradientUnits="userSpaceOnUse"
       gradientTransform="translate(-34,21)"
       x1="129.09"
       y1="134.07"
       x2="165.09"
       y2=".68848" />
    <linearGradient
       inkscape:collect="always"
       xlink:href="#linearGradient4051"
       id="linearGradient2862"
       gradientUnits="userSpaceOnUse"
       gradientTransform="translate(-34,21)"
       x1="129.09"
       y1="134.07"
       x2="165.09"
       y2=".68848" />
    <linearGradient
       inkscape:collect="always"
       xlink:href="#linearGradient4051"
       id="linearGradient2864"
       gradientUnits="userSpaceOnUse"
       gradientTransform="translate(-34,21)"
       x1="129.09"
       y1="134.07"
       x2="165.09"
       y2=".68848" />
    <linearGradient
       inkscape:collect="always"
       xlink:href="#linearGradient4051"
       id="linearGradient2866"
       gradientUnits="userSpaceOnUse"
       gradientTransform="translate(-34,21)"
       x1="129.09"
       y1="134.07"
       x2="165.09"
       y2=".68848" />
    <linearGradient
       inkscape:collect="always"
       xlink:href="#linearGradient4051"
       id="linearGradient2868"
       gradientUnits="userSpaceOnUse"
       gradientTransform="translate(-34,21)"
       x1="129.09"
       y1="134.07"
       x2="165.09"
       y2=".68848" />
    <linearGradient
       inkscape:collect="always"
       xlink:href="#linearGradient4051"
       id="linearGradient2870"
       gradientUnits="userSpaceOnUse"
       gradientTransform="translate(-34,21)"
       x1="129.09"
       y1="134.07"
       x2="165.09"
       y2=".68848" />
    <linearGradient
       inkscape:collect="always"
       xlink:href="#linearGradient4051"
       id="linearGradient2872"
       gradientUnits="userSpaceOnUse"
       gradientTransform="translate(-34,21)"
       x1="129.09"
       y1="134.07"
       x2="165.09"
       y2=".68848" />
    <linearGradient
       inkscape:collect="always"
       xlink:href="#linearGradient4051"
       id="linearGradient2874"
       gradientUnits="userSpaceOnUse"
       gradientTransform="translate(-34,21)"
       x1="129.09"
       y1="134.07"
       x2="165.09"
       y2=".68848" />
    <linearGradient
       inkscape:collect="always"
       xlink:href="#linearGradient4051"
       id="linearGradient2876"
       gradientUnits="userSpaceOnUse"
       gradientTransform="translate(-34,21)"
       x1="129.09"
       y1="134.07"
       x2="165.09"
       y2=".68848" />
    <linearGradient
       inkscape:collect="always"
       xlink:href="#linearGradient4051"
       id="linearGradient2878"
       gradientUnits="userSpaceOnUse"
       gradientTransform="translate(-34,21)"
       x1="129.09"
       y1="134.07"
       x2="165.09"
       y2=".68848" />
    <linearGradient
       inkscape:collect="always"
       xlink:href="#linearGradient4051"
       id="linearGradient2880"
       gradientUnits="userSpaceOnUse"
       gradientTransform="translate(-34,21)"
       x1="129.09"
       y1="134.07"
       x2="165.09"
       y2=".68848" />
    <linearGradient
       inkscape:collect="always"
       xlink:href="#linearGradient4051"
       id="linearGradient2882"
       gradientUnits="userSpaceOnUse"
       gradientTransform="translate(-34,21)"
       x1="129.09"
       y1="134.07"
       x2="165.09"
       y2=".68848" />
    <linearGradient
       inkscape:collect="always"
       xlink:href="#linearGradient4051"
       id="linearGradient2884"
       gradientUnits="userSpaceOnUse"
       gradientTransform="translate(-34,21)"
       x1="129.09"
       y1="134.07"
       x2="165.09"
       y2=".68848" />
    <linearGradient
       inkscape:collect="always"
       xlink:href="#linearGradient4051"
       id="linearGradient2886"
       gradientUnits="userSpaceOnUse"
       gradientTransform="translate(-34,21)"
       x1="129.09"
       y1="134.07"
       x2="165.09"
       y2=".68848" />
    <linearGradient
       inkscape:collect="always"
       xlink:href="#linearGradient4051"
       id="linearGradient2888"
       gradientUnits="userSpaceOnUse"
       gradientTransform="translate(-34,21)"
       x1="129.09"
       y1="134.07"
       x2="165.09"
       y2=".68848" />
    <linearGradient
       inkscape:collect="always"
       xlink:href="#linearGradient4051"
       id="linearGradient2890"
       gradientUnits="userSpaceOnUse"
       gradientTransform="translate(-34,21)"
       x1="129.09"
       y1="134.07"
       x2="165.09"
       y2=".68848" />
    <linearGradient
       inkscape:collect="always"
       xlink:href="#linearGradient4051"
       id="linearGradient2892"
       gradientUnits="userSpaceOnUse"
       gradientTransform="translate(-34,21)"
       x1="129.09"
       y1="134.07"
       x2="165.09"
       y2=".68848" />
    <linearGradient
       inkscape:collect="always"
       xlink:href="#linearGradient4051"
       id="linearGradient2894"
       gradientUnits="userSpaceOnUse"
       gradientTransform="translate(-34,21)"
       x1="129.09"
       y1="134.07"
       x2="165.09"
       y2=".68848" />
    <linearGradient
       inkscape:collect="always"
       xlink:href="#linearGradient4051"
       id="linearGradient2896"
       gradientUnits="userSpaceOnUse"
       gradientTransform="translate(-34,21)"
       x1="129.09"
       y1="134.07"
       x2="165.09"
       y2=".68848" />
    <linearGradient
       inkscape:collect="always"
       xlink:href="#linearGradient4051"
       id="linearGradient2898"
       gradientUnits="userSpaceOnUse"
       gradientTransform="translate(-34,21)"
       x1="129.09"
       y1="134.07"
       x2="165.09"
       y2=".68848" />
    <linearGradient
       inkscape:collect="always"
       xlink:href="#linearGradient4051"
       id="linearGradient2900"
       gradientUnits="userSpaceOnUse"
       gradientTransform="translate(-34,21)"
       x1="129.09"
       y1="134.07"
       x2="165.09"
       y2=".68848" />
    <linearGradient
       inkscape:collect="always"
       xlink:href="#linearGradient4051"
       id="linearGradient2902"
       gradientUnits="userSpaceOnUse"
       gradientTransform="translate(-34,21)"
       x1="129.09"
       y1="134.07"
       x2="165.09"
       y2=".68848" />
    <linearGradient
       inkscape:collect="always"
       xlink:href="#linearGradient4051"
       id="linearGradient2904"
       gradientUnits="userSpaceOnUse"
       gradientTransform="translate(-34,21)"
       x1="129.09"
       y1="134.07"
       x2="165.09"
       y2=".68848" />
    <linearGradient
       inkscape:collect="always"
       xlink:href="#linearGradient4051"
       id="linearGradient2906"
       gradientUnits="userSpaceOnUse"
       gradientTransform="translate(-34,21)"
       x1="129.09"
       y1="134.07"
       x2="165.09"
       y2=".68848" />
    <linearGradient
       inkscape:collect="always"
       xlink:href="#linearGradient4051"
       id="linearGradient2908"
       gradientUnits="userSpaceOnUse"
       gradientTransform="translate(-34,21)"
       x1="129.09"
       y1="134.07"
       x2="165.09"
       y2=".68848" />
    <linearGradient
       inkscape:collect="always"
       xlink:href="#linearGradient4051"
       id="linearGradient2910"
       gradientUnits="userSpaceOnUse"
       gradientTransform="translate(-34,21)"
       x1="129.09"
       y1="134.07"
       x2="165.09"
       y2=".68848" />
    <linearGradient
       inkscape:collect="always"
       xlink:href="#linearGradient4051"
       id="linearGradient2912"
       gradientUnits="userSpaceOnUse"
       gradientTransform="translate(-34,21)"
       x1="129.09"
       y1="134.07"
       x2="165.09"
       y2=".68848" />
    <linearGradient
       inkscape:collect="always"
       xlink:href="#linearGradient4051"
       id="linearGradient2914"
       gradientUnits="userSpaceOnUse"
       gradientTransform="translate(-34,21)"
       x1="129.09"
       y1="134.07"
       x2="165.09"
       y2=".68848" />
    <linearGradient
       inkscape:collect="always"
       xlink:href="#linearGradient4051"
       id="linearGradient2916"
       gradientUnits="userSpaceOnUse"
       gradientTransform="translate(-34,21)"
       x1="129.09"
       y1="134.07"
       x2="165.09"
       y2=".68848" />
    <linearGradient
       inkscape:collect="always"
       xlink:href="#linearGradient4051"
       id="linearGradient2918"
       gradientUnits="userSpaceOnUse"
       gradientTransform="translate(-34,21)"
       x1="129.09"
       y1="134.07"
       x2="165.09"
       y2=".68848" />
    <linearGradient
       inkscape:collect="always"
       xlink:href="#linearGradient4051"
       id="linearGradient2920"
       gradientUnits="userSpaceOnUse"
       gradientTransform="translate(-34,21)"
       x1="129.09"
       y1="134.07"
       x2="165.09"
       y2=".68848" />
    <linearGradient
       inkscape:collect="always"
       xlink:href="#linearGradient4051"
       id="linearGradient2922"
       gradientUnits="userSpaceOnUse"
       gradientTransform="translate(-34,21)"
       x1="129.09"
       y1="134.07"
       x2="165.09"
       y2=".68848" />
    <linearGradient
       inkscape:collect="always"
       xlink:href="#linearGradient4051"
       id="linearGradient2924"
       gradientUnits="userSpaceOnUse"
       gradientTransform="translate(-34,21)"
       x1="129.09"
       y1="134.07"
       x2="165.09"
       y2=".68848" />
    <linearGradient
       inkscape:collect="always"
       xlink:href="#linearGradient4051"
       id="linearGradient2926"
       gradientUnits="userSpaceOnUse"
       gradientTransform="translate(-34,21)"
       x1="129.09"
       y1="134.07"
       x2="165.09"
       y2=".68848" />
    <linearGradient
       inkscape:collect="always"
       xlink:href="#linearGradient4051"
       id="linearGradient2928"
       gradientUnits="userSpaceOnUse"
       gradientTransform="translate(-34,21)"
       x1="129.09"
       y1="134.07"
       x2="165.09"
       y2=".68848" />
    <linearGradient
       inkscape:collect="always"
       xlink:href="#linearGradient4051"
       id="linearGradient2930"
       gradientUnits="userSpaceOnUse"
       gradientTransform="translate(-34,21)"
       x1="129.09"
       y1="134.07"
       x2="165.09"
       y2=".68848" />
    <linearGradient
       inkscape:collect="always"
       xlink:href="#linearGradient4051"
       id="linearGradient2932"
       gradientUnits="userSpaceOnUse"
       gradientTransform="translate(-34,21)"
       x1="129.09"
       y1="134.07"
       x2="165.09"
       y2=".68848" />
    <linearGradient
       inkscape:collect="always"
       xlink:href="#linearGradient4051"
       id="linearGradient2934"
       gradientUnits="userSpaceOnUse"
       gradientTransform="translate(-34,21)"
       x1="129.09"
       y1="134.07"
       x2="165.09"
       y2=".68848" />
    <linearGradient
       inkscape:collect="always"
       xlink:href="#linearGradient4051"
       id="linearGradient2936"
       gradientUnits="userSpaceOnUse"
       gradientTransform="translate(-34,21)"
       x1="129.09"
       y1="134.07"
       x2="165.09"
       y2=".68848" />
    <linearGradient
       inkscape:collect="always"
       xlink:href="#linearGradient4051"
       id="linearGradient2938"
       gradientUnits="userSpaceOnUse"
       gradientTransform="translate(-34,21)"
       x1="129.09"
       y1="134.07"
       x2="165.09"
       y2=".68848" />
    <linearGradient
       inkscape:collect="always"
       xlink:href="#linearGradient4051"
       id="linearGradient2940"
       gradientUnits="userSpaceOnUse"
       gradientTransform="translate(-34,21)"
       x1="129.09"
       y1="134.07"
       x2="165.09"
       y2=".68848" />
    <linearGradient
       inkscape:collect="always"
       xlink:href="#linearGradient4051"
       id="linearGradient2942"
       gradientUnits="userSpaceOnUse"
       gradientTransform="translate(-34,21)"
       x1="129.09"
       y1="134.07"
       x2="165.09"
       y2=".68848" />
  </defs>
  <sodipodi:namedview
     id="base"
     bordercolor="#666666"
     inkscape:pageshadow="2"
     inkscape:window-y="-9"
     inkscape:snap-page="true"
     pagecolor="#ffffff"
     inkscape:window-height="1001"
     inkscape:window-maximized="1"
     inkscape:zoom="0.70710678"
     inkscape:window-x="-9"
     showgrid="false"
     borderopacity="1.0"
     inkscape:current-layer="layer1"
     inkscape:cx="730.1692"
     inkscape:cy="206.14574"
     showguides="true"
     inkscape:guide-bbox="true"
     inkscape:window-width="1920"
     inkscape:pageopacity="0.0"
     inkscape:document-units="px"
     inkscape:document-rotation="0" />
  <g
     id="layer1"
     inkscape:label="Capa 1"
     inkscape:groupmode="layer"
     transform="translate(3.0904 -274.27)">
    <path
       id="path60268"
       style="fill:url(#linearGradient60276);stroke-width:1.07417"
       d="m 441.59079,275.2856 c -10.81728,0 -19.87122,8.62684 -22.19423,20.18527 -7.89362,0.12256 -14.66252,5.58268 -17.68484,13.35234 -0.0417,-0.0178 -0.0828,-0.0393 -0.12456,-0.057 -2.44167,-1.02181 -5.07003,-1.59431 -7.82137,-1.59431 -12.57764,0 -22.79207,11.67455 -22.79207,26.05011 0,14.37555 10.21443,26.02138 22.79207,26.02138 0.39304,0 0.78254,-0.007 1.17074,-0.0284 2.19038,-0.1269 4.29285,-0.60969 6.27707,-1.39506 2.73375,8.42816 9.83352,14.43412 18.15809,14.43412 6.44485,0 12.1496,-3.6025 15.66728,-9.13866 5.34233,5.28925 12.30434,8.48396 19.92748,8.48396 10.53897,0 19.83906,-6.1045 25.30699,-15.40222 4.11933,4.69394 9.81483,7.60143 16.09129,7.60143 9.51612,0 17.64265,-6.66871 21.04779,-16.14179 3.58128,4.33588 8.66901,7.03195 14.29779,7.03195 6.033,0 11.44226,-3.10766 15.04534,-7.99993 3.88914,3.53786 8.8163,5.66548 14.17319,5.66548 0.93113,0 1.83813,-0.0752 2.74,-0.19928 3.60148,4.74354 8.91929,7.74372 14.84539,7.74372 9.5963,0 17.56327,-7.87957 19.2794,-18.2778 9.43052,-0.79089 16.86295,-9.8022 16.86295,-20.78243 0,-11.49999 -8.14631,-20.81114 -18.20832,-20.81114 -7.2982,0 -13.5814,4.90294 -16.49018,11.98575 -4.07181,-7.06902 -11.07151,-11.72966 -19.03024,-11.72966 -6.36478,0 -12.13352,2.98961 -16.26511,7.80067 -2.24807,-11.67339 -11.35484,-20.41265 -22.24346,-20.41265 -6.12666,0 -11.67436,2.76189 -15.76776,7.25979 -3.61836,-8.9029 -11.49551,-15.08871 -20.64991,-15.08871 -7.41104,0 -13.99937,4.06966 -18.1591,10.33449 -1.39572,-0.35962 -2.84338,-0.5694 -4.33415,-0.5694 -0.51726,0 -1.03712,0.0406 -1.54432,0.0853 -3.73702,-8.53645 -11.45532,-14.40541 -20.37561,-14.40541 z" />
    <path
       id="rect59537"
       sodipodi:nodetypes="ccccc"
       style="fill:#cce6f3;stroke-width:1.07417"
       d="M -3.5581857,275.2856 H 1054.8601 V 719.87373 H -3.5581857 Z" />
    <path
       id="path4624"
       sodipodi:nodetypes="cccccc"
       style="fill:url(#linearGradient4626);stroke-width:1.07417"
       d="m 279.48219,464.23039 c 163.85689,-65.665 331.27065,-95.95956 454.16332,-78.82557 107.42936,-44.41976 181.72159,-13.70031 181.72159,-13.70031 l -2.01957,160.61398 -650.59466,1.1484 16.73333,-69.23191 z" />
    <g
       id="g4403"
       style="fill:#c4a000"
       transform="matrix(-0.51575534,0,0,0.58948063,1053.6025,319.00485)">
      <path
         id="path4405"
         sodipodi:nodetypes="cccc"
         style="fill:url(#linearGradient2846);stroke:#edd400;stroke-width:5"
         d="m 126.79,56.57 c -17.5,5 -11,96 -11,96 l 13,-2 c 0,0 3,-89 20.5,-93" />
      <path
         id="path4407"
         sodipodi:nodetypes="cccc"
         style="fill:url(#linearGradient2848);stroke:#edd400;stroke-width:5"
         d="m 125.36,55.945 c -16.758,7.101 0.81359,96.625 0.81359,96.625 l 12.658,-3.5736 c 0,0 -7.8982,-88.7 8.9818,-94.808" />
      <path
         id="path4409"
         sodipodi:nodetypes="cccc"
         style="fill:url(#linearGradient2850);stroke:#edd400;stroke-width:5"
         d="m 134.81,60.945 c -16.758,7.101 -4.1864,91.625 -4.1864,91.625 l 12.658,-3.5736 c 0,0 -0.39823,-95.7 16.482,-101.81" />
      <path
         id="path4411"
         sodipodi:nodetypes="cccc"
         style="fill:url(#linearGradient2852);stroke:#edd400;stroke-width:5"
         d="m 120.25,44.945 c -16.758,7.101 -11.186,107.62 -11.186,107.62 l 12.658,-3.5736 c 0,0 -4.8982,-75.2 14.482,-78.808" />
      <path
         id="path4413"
         sodipodi:nodetypes="cccc"
         style="fill:url(#linearGradient2854);stroke:#edd400;stroke-width:5"
         d="m 80.44,60.945 c -16.758,7.101 -4.1864,91.625 -4.1864,91.625 l 12.658,-3.5736 c 0,0 -1.8982,-72.2 21.482,-72.808" />
      <path
         id="path4415"
         sodipodi:nodetypes="cccc"
         style="fill:url(#linearGradient2856);stroke:#edd400;stroke-width:5"
         d="m 20.491,56.57 c -17.5,5 -11,96 -11,96 l 13,-2 c 0,0 3,-89 20.5,-93" />
      <path
         id="path4417"
         sodipodi:nodetypes="cccc"
         style="fill:url(#linearGradient2858);stroke:#edd400;stroke-width:5"
         d="m 52.081,55.945 c -16.758,7.101 0.81359,96.625 0.81359,96.625 l 12.658,-3.5736 c 0,0 -7.8982,-88.7 8.9818,-94.808" />
      <path
         id="path4419"
         sodipodi:nodetypes="cccc"
         style="fill:url(#linearGradient2860);stroke:#edd400;stroke-width:5"
         d="m 166.67,60.945 c -16.758,7.101 -4.1864,91.625 -4.1864,91.625 l 12.658,-3.5736 c 0,0 -0.39823,-95.7 16.482,-101.81" />
      <path
         id="path4421"
         sodipodi:nodetypes="cccc"
         style="fill:url(#linearGradient2862);stroke:#edd400;stroke-width:5"
         d="m 239.47,44.945 c -16.75,7.101 -11.18,107.62 -11.18,107.62 l 12.658,-3.5736 c 0,0 -4.8982,-75.2 14.482,-78.808" />
      <path
         id="path4423"
         sodipodi:nodetypes="cccc"
         style="fill:url(#linearGradient2864);stroke:#edd400;stroke-width:5"
         d="m 101.03,60.945 c -16.758,7.101 -4.1864,91.625 -4.1864,91.625 l 12.658,-3.5736 c 0,0 -1.8982,-72.2 21.482,-72.808" />
      <path
         id="path4425"
         sodipodi:nodetypes="cccc"
         style="fill:url(#linearGradient2866);stroke:#edd400;stroke-width:5"
         d="m 8.0333,56.57 c -17.5,5 -11,96 -11,96 l 13,-2 c 0,0 3,-89 20.5,-93" />
      <path
         id="path4427"
         sodipodi:nodetypes="cccc"
         style="fill:url(#linearGradient2868);stroke:#edd400;stroke-width:5"
         d="m 127.95,55.945 c -16.758,7.101 0.81359,96.625 0.81359,96.625 l 12.658,-3.5736 c 0,0 -7.8982,-88.7 8.9818,-94.808" />
      <path
         id="path4429"
         sodipodi:nodetypes="cccc"
         style="fill:url(#linearGradient2870);stroke:#edd400;stroke-width:5"
         d="m 176.12,57.945 c -16.758,7.101 -4.1864,91.625 -4.1864,91.625 l 12.658,-3.5736 c 0,0 -0.39823,-95.7 16.482,-101.81" />
      <path
         id="path4431"
         sodipodi:nodetypes="cccc"
         style="fill:url(#linearGradient2872);stroke:#edd400;stroke-width:5"
         d="m 186.45,44.945 c -16.758,7.101 -11.186,107.62 -11.186,107.62 l 12.658,-3.5736 c 0,0 -4.8982,-75.2 14.482,-78.808" />
      <path
         id="path4433"
         sodipodi:nodetypes="cccc"
         style="fill:url(#linearGradient2874);stroke:#edd400;stroke-width:5"
         d="m 236.37,60.945 c -16.758,7.101 -4.1864,91.625 -4.1864,91.625 l 12.658,-3.5736 c 0,0 -1.8982,-72.2 21.482,-72.808" />
      <path
         id="path4435"
         sodipodi:nodetypes="cccc"
         style="fill:url(#linearGradient2876);stroke:#edd400;stroke-width:5"
         d="m 156.78,56.57 c -17.5,5 -11,96 -11,96 l 13,-2 c 0,0 3,-89 20.5,-93" />
      <path
         id="path4437"
         sodipodi:nodetypes="cccc"
         style="fill:url(#linearGradient2878);stroke:#edd400;stroke-width:5.6362"
         d="m 66.329,26.788 c -16.399,9.2204 0.79616,125.46 0.79616,125.46 l 12.387,-4.6402 c 0,0 -7.729,-115.17 8.7894,-123.11" />
      <path
         id="path4439"
         sodipodi:nodetypes="cccc"
         style="fill:url(#linearGradient2880);stroke:#edd400;stroke-width:5"
         d="m 192.35,60.945 c -16.758,7.101 -4.1864,91.625 -4.1864,91.625 l 12.658,-3.5736 c 0,0 -0.39823,-95.7 16.482,-101.81" />
      <path
         id="path4441"
         sodipodi:nodetypes="cccc"
         style="fill:url(#linearGradient2882);stroke:#edd400;stroke-width:5"
         d="M 42.748,44.945 C 25.99,52.046 31.562,152.565 31.562,152.565 l 12.658,-3.5736 c 0,0 -4.8982,-75.2 14.482,-78.808" />
      <path
         id="path4443"
         sodipodi:nodetypes="cccc"
         style="fill:url(#linearGradient2884);stroke:#edd400;stroke-width:4.5241"
         d="m 15.928,78.708 c -16.964,5.7429 -4.2379,74.101 -4.2379,74.101 l 12.814,-2.8901 c 0,0 -1.9216,-58.391 21.746,-58.883" />
      <path
         id="path4445"
         sodipodi:nodetypes="cccc"
         style="fill:url(#linearGradient2886);stroke:#edd400;stroke-width:5.2976"
         d="m 205.31,36.719 c -17.35,5.6616 -10.906,108.7 -10.906,108.7 l 12.888,-2.2646 c 0,0 2.9742,-100.78 20.324,-105.31" />
      <path
         id="path4447"
         sodipodi:nodetypes="cccc"
         style="fill:url(#linearGradient2888);stroke:#edd400;stroke-width:5"
         d="m 142.25,55.945 c -16.758,7.101 0.81359,96.625 0.81359,96.625 l 12.658,-3.5736 c 0,0 -7.8982,-88.7 8.9818,-94.808" />
      <path
         id="path4449"
         sodipodi:nodetypes="cccc"
         style="fill:url(#linearGradient2890);stroke:#edd400;stroke-width:5.4311"
         d="m 149.25,42.846 c -16.543,8.487 -4.1328,109.51 -4.1328,109.51 l 12.496,-4.2711 c 0,0 -0.39313,-114.38 16.271,-121.68" />
      <path
         id="path4451"
         sodipodi:nodetypes="cccc"
         style="fill:url(#linearGradient2892);stroke:#edd400;stroke-width:5"
         d="m 217.32,44.945 c -16.758,7.101 -11.186,107.62 -11.186,107.62 l 12.658,-3.5736 c 0,0 -4.8982,-75.2 14.482,-78.808" />
      <path
         id="path4453"
         sodipodi:nodetypes="cccc"
         style="fill:url(#linearGradient2894);stroke:#edd400;stroke-width:5"
         d="m 100.38,60.945 c -16.758,7.101 -4.1864,91.625 -4.1864,91.625 l 12.658,-3.5736 c 0,0 -1.8982,-72.2 21.482,-72.808" />
    </g>
    <path
       id="path6776"
       sodipodi:nodetypes="ccccc"
       style="fill:#d3d7cf"
       d="m-1155 190.06 78.393-22.026 293.74 57.627-129.93 53.14-242.2-88.74z" />
    <g
       id="g6750"
       transform="translate(260,52)">
      <path
         id="path6727"
         sodipodi:nodetypes="cccccccccccccccccc"
         style="stroke:#000000;stroke-width:1px;fill:#2e3436"
         d="m-1593 82.362 3-6-2-108 45-18 24 23-2.5 91 14.166 0.08028 0.3081-46.085 10.775-21.892 12.411 6.5506-1.2338 49.384 34.574 6.4627-18.5-151.5 33-29 24 23 4 181-185 25 4-25z" />
      <path
         id="path6734"
         sodipodi:nodetypes="cccccccccccc"
         style="fill:#888a85"
         d="m-1593 82.362 3-6-2-108 44-21-3 133 77-8 1-165 33-29 3 189 25 15-185 25 4-25z" />
      <path
         id="path6736"
         d="m-1582.5-312.41 2.5-1 32.5-13"
         style="stroke:#000000;stroke-width:3;fill:#2e3436"
         transform="translate(0 308.27)" />
      <path
         id="path6738"
         d="m-1578.5-284.91 36.5-10.5"
         style="stroke:#000000;stroke-width:3;fill:#2e3436"
         transform="translate(0 308.27)" />
      <path
         id="path6740"
         d="m-1578.5-257.91 2-1 36-9.5"
         style="stroke:#000000;stroke-width:3;fill:#2e3436"
         transform="translate(0 308.27)" />
      <path
         id="path6742"
         d="m-1581.5-234.91 45.5-12"
         style="stroke:#000000;stroke-width:3;fill:#2e3436"
         transform="translate(0 308.27)" />
      <path
         id="path6744"
         d="m-1463-398.91-1 155"
         style="stroke:#000000;stroke-width:3;fill:none"
         transform="translate(0 308.27)" />
      <path
         id="path6746"
         d="m-1455-402.91-2 157.5"
         style="stroke:#000000;stroke-width:3;fill:none"
         transform="translate(0 308.27)" />
      <path
         id="path6748"
         d="m-1448.5-413.91v3l0.5 163"
         style="stroke:#000000;stroke-width:3;fill:none"
         transform="translate(0 308.27)" />
    </g>
    <path
       id="path60162"
       sodipodi:nodetypes="cccccc"
       style="fill:url(#linearGradient60172);stroke-width:1.07417"
       d="M 633.37008,500.9789 C 469.52323,435.3139 302.10947,405.01934 179.2168,422.15334 71.787449,377.73357 -2.5047913,408.45304 -2.5047913,408.45304 L -0.48521589,569.06701 650.10943,570.2154 633.3761,500.98349 Z" />
    <g
       id="g4505"
       style="fill:#c4a000"
       transform="matrix(-0.47739346,0.22310942,0.19520553,0.54563505,874.5335,321.19829)">
      <path
         id="path4507"
         sodipodi:nodetypes="cccc"
         style="fill:url(#linearGradient2896);stroke:#edd400;stroke-width:5"
         d="m 126.79,56.57 c -17.5,5 -11,96 -11,96 l 13,-2 c 0,0 3,-89 20.5,-93" />
      <path
         id="path4509"
         sodipodi:nodetypes="cccc"
         style="fill:url(#linearGradient2898);stroke:#edd400;stroke-width:5"
         d="m 125.36,55.945 c -16.758,7.101 0.81359,96.625 0.81359,96.625 l 12.658,-3.5736 c 0,0 -7.8982,-88.7 8.9818,-94.808" />
      <path
         id="path4511"
         sodipodi:nodetypes="cccc"
         style="fill:url(#linearGradient2900);stroke:#edd400;stroke-width:5"
         d="m 134.81,60.945 c -16.758,7.101 -4.1864,91.625 -4.1864,91.625 l 12.658,-3.5736 c 0,0 -0.39823,-95.7 16.482,-101.81" />
      <path
         id="path4513"
         sodipodi:nodetypes="cccc"
         style="fill:url(#linearGradient2902);stroke:#edd400;stroke-width:5"
         d="m 120.25,44.945 c -16.758,7.101 -11.186,107.62 -11.186,107.62 l 12.658,-3.5736 c 0,0 -4.8982,-75.2 14.482,-78.808" />
      <path
         id="path4515"
         sodipodi:nodetypes="cccc"
         style="fill:url(#linearGradient2904);stroke:#edd400;stroke-width:5"
         d="m 80.44,60.945 c -16.758,7.101 -4.1864,91.625 -4.1864,91.625 l 12.658,-3.5736 c 0,0 -1.8982,-72.2 21.482,-72.808" />
      <path
         id="path4517"
         sodipodi:nodetypes="cccc"
         style="fill:url(#linearGradient2906);stroke:#edd400;stroke-width:5"
         d="m 20.491,56.57 c -17.5,5 -11,96 -11,96 l 13,-2 c 0,0 3,-89 20.5,-93" />
      <path
         id="path4519"
         sodipodi:nodetypes="cccc"
         style="fill:url(#linearGradient2908);stroke:#edd400;stroke-width:5"
         d="m 52.081,55.945 c -16.758,7.101 0.81359,96.625 0.81359,96.625 l 12.658,-3.5736 c 0,0 -7.8982,-88.7 8.9818,-94.808" />
      <path
         id="path4521"
         sodipodi:nodetypes="cccc"
         style="fill:url(#linearGradient2910);stroke:#edd400;stroke-width:5"
         d="m 166.67,60.945 c -16.758,7.101 -4.1864,91.625 -4.1864,91.625 l 12.658,-3.5736 c 0,0 -0.39823,-95.7 16.482,-101.81" />
      <path
         id="path4523"
         sodipodi:nodetypes="cccc"
         style="fill:url(#linearGradient2912);stroke:#edd400;stroke-width:5"
         d="m 239.47,44.945 c -16.75,7.101 -11.18,107.62 -11.18,107.62 l 12.658,-3.5736 c 0,0 -4.8982,-75.2 14.482,-78.808" />
      <path
         id="path4525"
         sodipodi:nodetypes="cccc"
         style="fill:url(#linearGradient2914);stroke:#edd400;stroke-width:5"
         d="m 101.03,60.945 c -16.758,7.101 -4.1864,91.625 -4.1864,91.625 l 12.658,-3.5736 c 0,0 -1.8982,-72.2 21.482,-72.808" />
      <path
         id="path4527"
         sodipodi:nodetypes="cccc"
         style="fill:url(#linearGradient2916);stroke:#edd400;stroke-width:5"
         d="m 8.0333,56.57 c -17.5,5 -11,96 -11,96 l 13,-2 c 0,0 3,-89 20.5,-93" />
      <path
         id="path4529"
         sodipodi:nodetypes="cccc"
         style="fill:url(#linearGradient2918);stroke:#edd400;stroke-width:5"
         d="m 127.95,55.945 c -16.758,7.101 0.81359,96.625 0.81359,96.625 l 12.658,-3.5736 c 0,0 -7.8982,-88.7 8.9818,-94.808" />
      <path
         id="path4531"
         sodipodi:nodetypes="cccc"
         style="fill:url(#linearGradient2920);stroke:#edd400;stroke-width:5"
         d="m 176.12,57.945 c -16.758,7.101 -4.1864,91.625 -4.1864,91.625 l 12.658,-3.5736 c 0,0 -0.39823,-95.7 16.482,-101.81" />
      <path
         id="path4533"
         sodipodi:nodetypes="cccc"
         style="fill:url(#linearGradient2922);stroke:#edd400;stroke-width:5"
         d="m 186.45,44.945 c -16.758,7.101 -11.186,107.62 -11.186,107.62 l 12.658,-3.5736 c 0,0 -4.8982,-75.2 14.482,-78.808" />
      <path
         id="path4535"
         sodipodi:nodetypes="cccc"
         style="fill:url(#linearGradient2924);stroke:#edd400;stroke-width:5"
         d="m 236.37,60.945 c -16.758,7.101 -4.1864,91.625 -4.1864,91.625 l 12.658,-3.5736 c 0,0 -1.8982,-72.2 21.482,-72.808" />
      <path
         id="path4537"
         sodipodi:nodetypes="cccc"
         style="fill:url(#linearGradient2926);stroke:#edd400;stroke-width:5"
         d="m 156.78,56.57 c -17.5,5 -11,96 -11,96 l 13,-2 c 0,0 3,-89 20.5,-93" />
      <path
         id="path4539"
         sodipodi:nodetypes="cccc"
         style="fill:url(#linearGradient2928);stroke:#edd400;stroke-width:5.6362"
         d="m 66.329,26.788 c -16.399,9.2204 0.79616,125.46 0.79616,125.46 l 12.387,-4.6402 c 0,0 -7.729,-115.17 8.7894,-123.11" />
      <path
         id="path4541"
         sodipodi:nodetypes="cccc"
         style="fill:url(#linearGradient2930);stroke:#edd400;stroke-width:5"
         d="m 192.35,60.945 c -16.758,7.101 -4.1864,91.625 -4.1864,91.625 l 12.658,-3.5736 c 0,0 -0.39823,-95.7 16.482,-101.81" />
      <path
         id="path4543"
         sodipodi:nodetypes="cccc"
         style="fill:url(#linearGradient2932);stroke:#edd400;stroke-width:5"
         d="M 42.748,44.945 C 25.99,52.046 31.562,152.565 31.562,152.565 l 12.658,-3.5736 c 0,0 -4.8982,-75.2 14.482,-78.808" />
      <path
         id="path4545"
         sodipodi:nodetypes="cccc"
         style="fill:url(#linearGradient2934);stroke:#edd400;stroke-width:4.5241"
         d="m 15.928,78.708 c -16.964,5.7429 -4.2379,74.101 -4.2379,74.101 l 12.814,-2.8901 c 0,0 -1.9216,-58.391 21.746,-58.883" />
      <path
         id="path4547"
         sodipodi:nodetypes="cccc"
         style="fill:url(#linearGradient2936);stroke:#edd400;stroke-width:5.2976"
         d="m 205.31,36.719 c -17.35,5.6616 -10.906,108.7 -10.906,108.7 l 12.888,-2.2646 c 0,0 2.9742,-100.78 20.324,-105.31" />
      <path
         id="path4549"
         sodipodi:nodetypes="cccc"
         style="fill:url(#linearGradient2938);stroke:#edd400;stroke-width:5"
         d="m 142.25,55.945 c -16.758,7.101 0.81359,96.625 0.81359,96.625 l 12.658,-3.5736 c 0,0 -7.8982,-88.7 8.9818,-94.808" />
      <path
         id="path4551"
         sodipodi:nodetypes="cccc"
         style="fill:url(#linearGradient2940);stroke:#edd400;stroke-width:5.4311"
         d="m 149.25,42.846 c -16.543,8.487 -4.1328,109.51 -4.1328,109.51 l 12.496,-4.2711 c 0,0 -0.39313,-114.38 16.271,-121.68" />
      <path
         id="path4553"
         sodipodi:nodetypes="cccc"
         style="fill:url(#linearGradient2942);stroke:#edd400;stroke-width:5"
         d="m 217.32,44.945 c -16.758,7.101 -11.186,107.62 -11.186,107.62 l 12.658,-3.5736 c 0,0 -4.8982,-75.2 14.482,-78.808" />
      <path
         id="path4555"
         sodipodi:nodetypes="cccc"
         style="fill:url(#linearGradient4455);stroke:#edd400;stroke-width:5"
         d="m 100.38,60.945 c -16.758,7.101 -4.1864,91.625 -4.1864,91.625 l 12.658,-3.5736 c 0,0 -1.8982,-72.2 21.482,-72.808" />
    </g>
    <path
       id="rect60057"
       sodipodi:nodetypes="ccccc"
       style="fill:url(#linearGradient60121);stroke-width:1.07417"
       d="M 744.06491,484.46503 C 889.97672,366.92721 1054.8685,412.28636 1054.8685,412.28636 v 306.62042 l -314.97336,-7.30835 4.16897,-227.12879 z" />
    <path
       id="path60053"
       sodipodi:nodetypes="ccccc"
       style="fill:url(#linearGradient60129);stroke-width:1.07417"
       d="m 323.01861,486.91112 c 443.53292,-60.70052 731.84989,45.10765 731.84989,45.10765 v 188.66917 l -730.41308,-0.81205 -1.4354,-232.96261 z" />
    <path
       id="path60316"
       sodipodi:nodetypes="cccc"
       style="fill:#fce94f;stroke-width:1.07417"
       d="M 323.01861,486.91112 C 766.55153,426.2106 1050.7591,531.20571 1050.7591,531.20571 970.29051,512.01608 565.59875,427.03055 328.47447,577.46979 l -5.45445,-90.55867 z" />
    <path
       id="path60318"
       sodipodi:nodetypes="cccc"
       style="fill:#fce94f;stroke-width:1.07417"
       d="M 335.07577,628.16321 C 691.19423,436.55417 1041.7463,531.20456 1041.7463,531.20456 957.22557,502.82781 576.65116,506.27299 331.48877,715.28016 l 3.58841,-87.11349 z" />
    <path
       id="path60320"
       sodipodi:nodetypes="cccc"
       style="fill:#fce94f;stroke-width:1.07417"
       d="M 412.44259,723.47967 C 812.77067,457.2252 1054.9087,532.35294 1054.9087,532.35294 929.19265,483.30516 616.84171,623.40887 508.32721,726.76407 l -95.88362,-3.28118 z" />
    <path
       id="path60338"
       sodipodi:rx="7.4246211"
       sodipodi:ry="7.4246211"
       style="fill:#729fcf"
       sodipodi:type="arc"
       d="m576.29 653.55c0 4.1005-3.3241 7.4246-7.4246 7.4246s-7.4246-3.3241-7.4246-7.4246 3.3241-7.4246 7.4246-7.4246 7.4246 3.3241 7.4246 7.4246z"
       transform="matrix(1.5357 0 0 1.5357 -634.35 294.73)"
       sodipodi:cy="653.55396"
       sodipodi:cx="568.86743" />
    <path
       id="path60439"
       style="opacity:.85338;fill:#2e3436"
       d="m240.5 1310.9c-5.4977 0.084-10.694 2.6938-14.062 7 0.4003 3.8991 2.0745 7.5427 4.6875 10.406-2.1151-2.6477-3.4615-5.8631-3.8125-9.2812 4.3868-5.6088 11.932-8.2493 19.156-6.0625 6.6031 1.9986 11.191 7.4925 12.344 13.844-0.8823-6.8921-5.7002-12.982-12.781-15.125-1.8489-0.5596-3.6987-0.8092-5.5313-0.7812z" />
    <path
       id="path60444"
       style="opacity:.85338;fill:#2e3436"
       d="m272.97 1320.4c-5.4977 0.084-10.694 2.6938-14.062 7v0.062c0.4552 0.1001 0.8942 0.2784 1.3125 0.5313 4.439-5.2404 11.727-7.6474 18.719-5.5313 6.6032 1.9987 11.191 7.4925 12.344 13.844-0.8823-6.8921-5.7003-12.982-12.781-15.125-1.8489-0.5596-3.6987-0.8093-5.5312-0.7813z" />
    <path
       id="path60456"
       sodipodi:nodetypes="cccsc"
       style="opacity:.85338;fill:#2e3436"
       d="m224.36 1334.4c1.185 3.1043 4.0727 5.4025 7.582 5.6789 0.013-0.1839 0.031-0.3609 0.076-0.5329-0.075 0 1.193-1.3414 1.1173-1.3457-3.3558-0.1899-7.5019-0.9248-8.7755-3.8003z" />
    <g
       id="g60616"
       transform="translate(-368.06 618.44)">
      <path
         id="path60618"
         sodipodi:nodetypes="cssssc"
         style="fill:#e8b686"
         d="m559.18 695.47c1.6699 12.732-0.36054 20.312-5.152 20.94-2.026 0.26575-5.3819 6.9148-7.2641 4.0159-2.5691-3.957-0.97146-14.082-1.9353-21.43-1.67-12.732-7.1395-25.062-2.348-25.69 4.7914-0.62848 15.029 9.433 16.699 22.165z" />
      <path
         id="path60620"
         sodipodi:nodetypes="cssssc"
         style="fill:#e8b686"
         d="m642.13 694.97c-1.6699 12.732 0.36054 20.312 5.152 20.94 2.026 0.26575 5.3819 6.9148 7.2641 4.0159 2.5691-3.957 0.97146-14.082 1.9353-21.43 1.67-12.732 7.1395-25.062 2.348-25.69-4.7914-0.62848-15.029 9.433-16.699 22.165z" />
      <path
         id="path60622"
         style="fill:#eecaa6"
         d="m600.4 619.31c-25.236 2.1029-45.66 23.31-51.604 47.258-2.2427 9.2532-1.7064 18.869-1.6632 28.294 2.0938 22.924 14.178 45.175 33.066 58.46 6.2702 4.1144 13.422 7.715 20.932 8.3106 20.908-4.1914 36.795-21.377 45.42-40.172 5.2738-11.385 7.9914-24.026 7.1551-36.575 1.4961-26.467-15.072-53.363-40.055-62.612-4.2649-1.557-8.7311-2.5573-13.252-2.9653z" />
      <path
         id="path60624"
         style="fill:#e8b888"
         d="m584.75 666.86 5.75 5.25-1.25 14-8-12s6.25-4.75 3.5-7.25z" />
      <g
         id="g60626"
         transform="translate(-13.25 -4.25)">
        <path
           id="path60628"
           style="opacity:.85338;fill:#fffef9"
           d="m589.5 676.87c-7.2245-2.1867-14.752 0.45031-19.139 6.0591 0.70971 6.9124 5.4464 13.043 12.513 15.182 7.2345 2.1898 14.763-0.46429 19.148-6.089-0.001-0.01 0.0103-0.0201 0.009-0.0299-0.73409-6.8844-5.488-12.991-12.531-15.123z" />
        <path
           id="path60630"
           style="opacity:.85338;fill:#729fcf"
           d="m584.06 676.09c-5.3705 0.082-10.429 2.6372-13.719 6.8438 0.57664 5.6164 3.8291 10.7 8.8125 13.562 6.2386-0.0681 11.281-5.1515 11.281-11.406 0-3.6074-1.6975-6.7857-4.3125-8.875-0.68411-0.0692-1.3854-0.13534-2.0625-0.125z" />
        <path
           id="path60632"
           sodipodi:rx="7.4246211"
           sodipodi:ry="7.4246211"
           style="fill:#204a87"
           sodipodi:type="arc"
           d="m576.29 653.55c0 4.1005-3.3241 7.4246-7.4246 7.4246s-7.4246-3.3241-7.4246-7.4246 3.3241-7.4246 7.4246-7.4246 7.4246 3.3241 7.4246 7.4246z"
           transform="matrix(.66667 0 0 .66667 200.58 249.49)"
           sodipodi:cy="653.55396"
           sodipodi:cx="568.86743" />
        <path
           id="path60634"
           sodipodi:rx="7.4246211"
           sodipodi:ry="7.4246211"
           style="fill:#fdf6ed"
           sodipodi:type="arc"
           d="m576.29 653.55c0 4.1005-3.3241 7.4246-7.4246 7.4246s-7.4246-3.3241-7.4246-7.4246 3.3241-7.4246 7.4246-7.4246 7.4246 3.3241 7.4246 7.4246z"
           transform="matrix(.28571 0 0 .28571 420.12 495.64)"
           sodipodi:cy="653.55396"
           sodipodi:cx="568.86743" />
        <path
           id="path60636"
           sodipodi:rx="7.4246211"
           sodipodi:ry="7.4246211"
           style="fill:#fdf6ed"
           sodipodi:type="arc"
           d="m576.29 653.55c0 4.1005-3.3241 7.4246-7.4246 7.4246s-7.4246-3.3241-7.4246-7.4246 3.3241-7.4246 7.4246-7.4246 7.4246 3.3241 7.4246 7.4246z"
           transform="matrix(.16667 0 0 .16667 482.36 581.04)"
           sodipodi:cy="653.55396"
           sodipodi:cx="568.86743" />
        <path
           id="path60638"
           sodipodi:nodetypes="cccc"
           style="fill:#fdf6ed"
           d="m590.62 682.36-5.125 2.125 6 0.375-0.875-2.5z" />
        <path
           id="path60640"
           style="opacity:.85338;fill:#729fcf"
           d="m584.06 676.34c-5.3705 0.082-10.429 2.6372-13.719 6.8438 0.0294 0.28685 0.0505 0.5599 0.0937 0.84375 4.2881-3.7472 10.493-5.9856 17.062-6.0625 0.0616-0.00072 0.12561 0 0.1875 0-0.47219-0.54767-0.99641-1.0477-1.5625-1.5-0.68411-0.0692-1.3854-0.13534-2.0625-0.125z" />
        <path
           id="path60642"
           style="fill:#2e3436"
           d="m583.09 675.26c-3.673 0.0561-7.2075 1.2489-10.156 3.3125-1.9051-0.23435-3.8734-0.8191-4.5625-2.375 0.50021 1.3102 1.4528 2.4004 2.6875 3.0625-2.5997-0.31236-5.3091-1.1257-6.25-3.25 0.78704 2.0616 2.4263 3.7161 4.5 4.5312-3.1744-0.46392-6.3222-1.5363-7.4688-4.125 1.376 3.6044 4.7066 6.2728 8.7812 6.5938 0.0127-0.18223 0.0565-0.35936 0.0937-0.53125 4.4657-4.9613 11.533-7.2177 18.344-5.1562 6.6032 1.9987 11.191 7.4925 12.344 13.844-0.88227-6.8921-5.7003-12.982-12.781-15.125-1.8489-0.55963-3.6987-0.80925-5.5312-0.78125z" />
      </g>
      <path
         id="path60644"
         style="fill:#e8b888"
         d="m633 671.86s5.25-7 3.5-9.25 11.75-2.5 11.75-2.5 0.75 17.25-3.75 18.5-11.25-6.25-11.5-6.75z" />
      <path
         id="path60646"
         style="opacity:.85338;fill:#fffef9"
         d="m624.86 672.39c7.2245-2.1867 14.752 0.45031 19.139 6.0591-0.70971 6.9124-5.4464 13.043-12.513 15.182-7.2345 2.1898-14.763-0.46429-19.148-6.089 0.001-0.01-0.0103-0.0201-0.009-0.0299 0.73409-6.8844 5.488-12.991 12.531-15.123z" />
      <path
         id="path60648"
         style="opacity:.85338;fill:#729fcf"
         d="m626.33 694.49c-5.3705-0.082-10.429-2.6372-13.719-6.8438 0.57664-5.6164 3.8291-10.7 8.8125-13.562 6.2386 0.0681 11.281 5.1515 11.281 11.406 0 3.6074-1.6975 6.7857-4.3125 8.875-0.68411 0.0692-1.3854 0.13534-2.0625 0.125z" />
      <path
         id="path60650"
         sodipodi:rx="7.4246211"
         sodipodi:ry="7.4246211"
         style="fill:#204a87"
         sodipodi:type="arc"
         d="m576.29 653.55c0 4.1005-3.3241 7.4246-7.4246 7.4246s-7.4246-3.3241-7.4246-7.4246 3.3241-7.4246 7.4246-7.4246 7.4246 3.3241 7.4246 7.4246z"
         transform="matrix(-.66667 0 0 .66667 999.46 248.37)"
         sodipodi:cy="653.55396"
         sodipodi:cx="568.86743" />
      <path
         id="path60652"
         sodipodi:rx="7.4246211"
         sodipodi:ry="7.4246211"
         style="fill:#fdf6ed"
         sodipodi:type="arc"
         d="m576.29 653.55c0 4.1005-3.3241 7.4246-7.4246 7.4246s-7.4246-3.3241-7.4246-7.4246 3.3241-7.4246 7.4246-7.4246 7.4246 3.3241 7.4246 7.4246z"
         transform="matrix(-.28571 0 0 .28571 785.4 493.81)"
         sodipodi:cy="653.55396"
         sodipodi:cx="568.86743" />
      <path
         id="path60654"
         sodipodi:rx="7.4246211"
         sodipodi:ry="7.4246211"
         style="fill:#fdf6ed"
         sodipodi:type="arc"
         d="m576.29 653.55c0 4.1005-3.3241 7.4246-7.4246 7.4246s-7.4246-3.3241-7.4246-7.4246 3.3241-7.4246 7.4246-7.4246 7.4246 3.3241 7.4246 7.4246z"
         transform="matrix(-.16667 0 0 .16667 713.61 578.33)"
         sodipodi:cy="653.55396"
         sodipodi:cx="568.86743" />
      <path
         id="path60656"
         sodipodi:nodetypes="cccc"
         style="fill:#fdf6ed"
         d="m631.52 678.23-5.125 2.125 6 0.375-0.875-2.5z" />
      <path
         id="path60658"
         sodipodi:nodetypes="ccccc"
         style="opacity:.85338;fill:#2e3436"
         d="m557.98 660.96c-0.7888-0.15227-2.5059 0.74923-0.74839 0.57186 9.5353 0.66197 27.381 1.7901 31.633 11.305 0.8546 0.80633 2.6678 0.51795 1.75-0.92368-4.4348-10.198-23.07-10.757-32.635-10.953z" />
      <path
         id="path60660"
         style="fill:#2e3436"
         d="m631.27 670.77c3.673 0.0561 7.2075 1.2489 10.156 3.3125 1.9051-0.23435 3.8734-0.8191 4.5625-2.375-0.50021 1.3102-1.4528 2.4004-2.6875 3.0625 2.5997-0.31236 5.3091-1.1257 6.25-3.25-0.78704 2.0616-2.4263 3.7161-4.5 4.5312 3.1744-0.46392 6.3222-1.5363 7.4688-4.125-1.376 3.6044-4.7066 6.2728-8.7812 6.5938-0.0127-0.18223-0.0565-0.35936-0.0937-0.53125-4.4657-4.9613-11.533-7.2177-18.344-5.1562-6.6032 1.9987-11.191 7.4925-12.344 13.844 0.88227-6.8921 5.7003-12.982 12.781-15.125 1.8489-0.55963 3.6987-0.80925 5.5312-0.78125z" />
      <path
         id="path60662"
         sodipodi:nodetypes="ccccc"
         style="opacity:.85338;fill:#2e3436"
         d="m646.73 660.02c0.7888-0.15227 2.5059 0.74923 0.74839 0.57186-9.5353 0.66197-27.381 1.7901-31.633 11.305-0.8546 0.80633-2.6678 0.51795-1.75-0.92368 4.4348-10.198 23.07-10.757 32.635-10.953z" />
      <path
         id="path60664"
         style="opacity:.33459;fill:#2e3436"
         d="m589.75 714.06 5.1562 3.25c3.3024 0.5568 6.1579 0.59609 9.0938 0.21875l6.25-3.4688c-7.2717 1.9445-12.138 2.2981-20.5 0z" />
      <path
         id="path60666"
         sodipodi:nodetypes="ccccccc"
         style="fill:#ef6f66"
         d="m585.26 730.61 12.152 0.60095c1.431 2.6912 3.7458 0.96303 4.2929 0.38388l10.326-0.0455-8.1036 3.5607-8.3436 0.26517-10.323-4.7652z" />
      <path
         id="path60668"
         sodipodi:nodetypes="ccccc"
         style="fill:#f28881"
         d="m586.82 731.77 8.5 3.375 5.75-0.25 9.9357-3.0732c-9.1721 11.824-16.366 12.653-24.186-0.0518z" />
      <path
         id="path60670"
         sodipodi:nodetypes="cs"
         style="stroke:#a40000;stroke-width:1px;fill:none"
         d="m582.5 728.11s13.75 15.75 34 0.75" />
      <rect
         id="rect60672"
         style="opacity:.33459;fill:#ffffff"
         ry=".5"
         height="1"
         width="8.25"
         y="737.36"
         x="594.25" />
      <path
         id="path60674"
         sodipodi:nodetypes="ccccc"
         style="opacity:.33459;fill:#a40000"
         d="m590.12 732.74 5.625-0.125 2 2.25-7.625-1.125v-1z" />
    </g>
    <path
       id="path60414"
       sodipodi:rx="7.4246211"
       sodipodi:ry="7.4246211"
       style="fill:#729fcf"
       sodipodi:type="arc"
       d="m576.29 653.55c0 4.1005-3.3241 7.4246-7.4246 7.4246s-7.4246-3.3241-7.4246-7.4246 3.3241-7.4246 7.4246-7.4246 7.4246 3.3241 7.4246 7.4246z"
       transform="matrix(1.5357 0 0 1.5357 -639.16 262.64)"
       sodipodi:cy="653.55396"
       sodipodi:cx="568.86743" />
    <path
       id="path62295"
       style="fill:#eeeeec"
       d="m-1412.3-143.81 4 366 340-94-2.125-222.59-341.88-49.406zm57.031 43.844 176.97 26.656-2.3125 174.78-172.62 40.031-2.0313-241.47z" />
    <path
       id="path62297"
       style="fill:#eeeeec"
       d="m-588 988.36h340v224h-340v-224z" />
    <path
       id="path62299"
       sodipodi:nodetypes="ccccc"
       style="fill:#d3d7cf"
       d="m-1072-96.638 340-20v284l-340-40v-224z" />
    <path
       id="path62301"
       sodipodi:nodetypes="ccccc"
       style="fill-opacity:.74609;fill:#729fcf"
       d="m-1355.7-99.851 176.96 26.669-2.3187 174.79-172.6 40.019-2.0398-241.48z" />
    <path
       id="path62305"
       style="stroke:#ffffff;stroke-width:4;fill:none"
       d="m-1344 5.3622 54-74" />
    <path
       id="path62307"
       style="stroke:#ffffff;stroke-width:4;fill:none"
       d="m-1340 12.362 54-74" />
    <rect
       id="rect62309"
       style="fill:#eeeeec"
       height="223"
       width="11"
       y="-89.638"
       x="-1263" />
    <path
       id="path62311"
       style="stroke:#ffffff;stroke-width:4;fill:none"
       d="m-1247-8.8606 40.034-55.213" />
    <path
       id="path62313"
       style="stroke:#ffffff;stroke-width:4;fill:none"
       d="m-1244-3.6378 40-55.212" />
    <path
       id="path3028"
       sodipodi:nodetypes="csccc"
       style="fill:#c17d11;stroke-width:1.07417"
       d="m 315.78431,475.85211 c 0,0 -318.2891013,-9.90397 -318.2891013,40.0444 v 204.6318 l 610.9567213,3.92084 c 0,0 -165.57504,-100.69208 -292.66762,-248.6037 z" />
    <path
       id="path3802"
       sodipodi:nodetypes="ccccc"
       style="fill:#e9b96e;stroke-width:1.07417"
       d="m 224.57185,486.69292 c 40.19055,-29.85817 69.3287,-5.74197 69.3287,-5.74197 l 262.24337,244.60731 -84.40017,-2.29678 c 0,0 -207.98611,-227.38143 -247.1719,-236.56856 z" />
    <path
       id="path3804"
       sodipodi:nodetypes="ccccc"
       style="fill:#e9b96e;stroke-width:1.07417"
       d="m 121.08117,495.88005 c 25.11909,-37.89691 73.34776,-10.33552 73.34776,-10.33552 l 235.11475,237.71695 -72.343,-2.29677 c 0,0 -209.99565,-211.30397 -236.11951,-225.08466 z" />
    <path
       id="path3806"
       sodipodi:nodetypes="ccccc"
       style="fill:#e9b96e;stroke-width:1.07417"
       d="M 19.600013,509.66074 C 62.804861,475.209 88.928721,492.43487 88.928721,492.43487 L 312.99107,723.26148 228.5909,720.96471 c 0,0 -182.867026,-197.52327 -208.990887,-211.30397 z" />
    <path
       id="path3808"
       sodipodi:nodetypes="ccccc"
       style="fill:#e9b96e;stroke-width:1.07417"
       d="M -2.5047913,608.42237 V 547.55764 L 184.38129,727.85505 99.981127,725.55826 c 0,0 -102.4859183,-101.05842 -102.4859183,-117.13589 z" />
    <path
       id="path6207"
       sodipodi:nodetypes="ccccc"
       style="fill:#d3d7cf"
       d="m-1412 219.36 340.59-94.148 0.1213 13.84-339.46 96.752-1.2426-16.444z" />
    <path
       id="path6209"
       sodipodi:nodetypes="ccccc"
       style="fill:#babdb6"
       d="m-732 162.08-340.35-36.866 0.061 13.426 340.82 48.369l-0.52-24.93z" />
    <path
       id="path6721"
       sodipodi:nodetypes="csscccccsc"
       style="opacity:.52653;stroke:#8f5902;stroke-width:5;fill:none"
       d="m-1354.3 135.23c-0.01-3.403-0.4755-57.559-1.0405-120.35-0.5651-62.787-0.9569-114.22-0.8707-114.31 0.1323-0.12353 82.624 12.217 90.492 13.537l2.654 0.44537-0.1792 102.92-0.1791 102.92-45.255 10.494c-24.89 5.7714-45.334 10.499-45.432 10.505-0.097 0.006-0.1828-2.7725-0.19-6.1754z" />
    <path
       id="path6723"
       sodipodi:nodetypes="cssssc"
       style="opacity:.52653;stroke-linejoin:round;stroke:#8f5902;stroke-width:3.5355;fill:none"
       d="m-1252.2 19.084c0-95.165 0.065-100.41 1.2374-100.39 2.0708 0.0367 69.459 10.334 69.789 10.665 0.4749 0.47493-1.8711 173.45-2.3599 173.99-0.341 0.37995-67.065 16.137-68.332 16.137-0.1836 0-0.3339-45.184-0.3339-100.41z" />
    <path
       id="path6731"
       sodipodi:nodetypes="ccccc"
       style="fill:none"
       d="m-1414-143.64 341.88 49.414 2.1213 222.59-340 94-4-366z" />
    <rect
       id="rect6768"
       style="fill:#555753"
       transform="translate(0 308.27)"
       height="127"
       width="17"
       y="-171.91"
       x="-950" />
    <rect
       id="rect6770"
       style="fill:#555753"
       height="127"
       width="17"
       y="104.36"
       x="-890" />
    <rect
       id="rect6772"
       style="fill:#555753"
       height="104.59"
       width="14"
       y="100.36"
       x="-1119" />
    <rect
       id="rect6774"
       style="fill:#555753"
       height="104.59"
       width="14"
       y="85.362"
       x="-1078" />
    <path
       id="rect6761"
       sodipodi:nodetypes="csccccc"
       style="fill:#729fcf"
       d="m-1159.1 102.01c-1.0873-1.9776-1.0612-7.8209 0.2286-8.7872 7.571-5.6724 56.397-8.1046 80.382-15.254l259.47 17.779-0.42655 10.177-92.045 48.412-247.61-52.326z" />
    <path
       id="path6778"
       sodipodi:nodetypes="ccccc"
       style="fill:#204a87"
       d="m-1161.1 93.011 80.61-24.042 263.04 25.456-94.752 46.669-248.9-48.083z" />
    <path
       id="path6780"
       style="opacity:.59398;fill:#2e3436"
       transform="translate(0 308.27)"
       d="m-820.5-212.91 1.5 11-91 46.5-1-12 90.5-45.5z" />
    <rect
       id="rect3006"
       style="fill:none"
       height="40"
       width="176"
       y="-212.64"
       x="-1256" />
    <path
       id="rect3097"
       sodipodi:nodetypes="ccccc"
       style="fill:#ce5c00"
       d="m424-367.64h359v54.711l-359 6.2887v-61z" />
    <path
       id="path4607"
       sodipodi:nodetypes="cccc"
       style="fill:#fce94f;stroke-width:1.07417"
       d="m 623.443,723.47967 c 338.03272,-222.61561 431.4657,-191.12673 431.4657,-191.12673 -115.66841,19.8557 -188.88555,81.86881 -297.40005,185.224 L 623.443,723.48289 Z" />
    <path
       id="path4609"
       sodipodi:nodetypes="cccc"
       style="fill:#fce94f;stroke-width:1.07417"
       d="M 856.56832,720.20676 C 991.63873,591.75921 1054.9087,532.35294 1054.9087,532.35294 c 0,15.26212 -51.4881,66.18063 -61.53676,190.20803 l -136.75841,-2.35364 z" />
    <path
       id="path4611"
       sodipodi:nodetypes="cccccccccc"
       style="fill:url(#linearGradient4619);stroke-width:1.07417"
       d="m 979.21985,444.06464 31.07635,9.32642 44.5733,5.74196 v 44.78725 l -56.7611,-26.15804 -51.11233,-18.62921 -7.03335,-5.74196 2.00952,-17.22586 z" />
    <path
       id="path4368"
       sodipodi:nodetypes="ccccc"
       style="fill:#5e0000;stroke-width:1.07417"
       d="m 896.75887,355.5122 89.42399,-2.02507 2.00953,94.16807 -91.43352,-21.26362 v -70.87869 z" />
    <path
       id="rect4365"
       style="fill:#cc0000;stroke-width:1.07417"
       sodipodi:nodetypes="ccccc"
       d="m 834.46351,355.78093 89.42399,-2.29678 2.00953,106.80036 -91.43352,-24.11621 z" />
    <path
       id="path4370"
       style="fill:#a40000;stroke-width:1.07417"
       sodipodi:nodetypes="cccccccccc"
       d="m 923.26454,353.3406 1.44435,105.97467 15.47939,-3.01452 -0.87916,-65.2068 39.15464,-2.5121 1.03611,60.03903 8.91728,-1.72258 -1.63274,-93.01969 -31.79073,-43.89954 -31.75054,43.37014 z" />
    <path
       id="path4375"
       style="fill:#2e3436;stroke:#000000;stroke-width:1.07417px"
       d="m 830.44446,364.39386 3.01429,-0.5742 h 85.40493 l 35.66912,-52.82599 -94.95019,8.03874 z" />
    <path
       id="path4377"
       sodipodi:nodetypes="cccccc"
       style="fill:#2e3436;stroke:#000000;stroke-width:1.07417px"
       d="m 955.03518,312.13748 33.15721,44.21305 -33.15721,-44.21305 -94.95019,8.03873 z" />
    <path
       id="rect4353"
       style="fill:url(#linearGradient4393);stroke-width:1.07417"
       d="m 859.75343,351.43542 c -10.46161,0 -18.93378,5.76043 -18.93378,12.88379 0,0.64306 0.0863,1.28425 0.21979,1.90197 v 78.6292 c -0.45228,1.1231 -0.72217,2.29608 -0.72217,3.51693 0,7.34742 8.77089,13.31446 19.56174,13.31446 10.79017,0 19.53061,-5.96682 19.53061,-13.31446 0,-1.22085 -0.26988,-2.39381 -0.72213,-3.51693 v -80.10029 h -0.0312 c 0.01,-0.14327 0.0312,-0.28623 0.0312,-0.43064 0,-7.12313 -8.47227,-12.88381 -18.93376,-12.88381 z" />
    <ellipse
       id="path4395"
       style="opacity:0.57959;fill:#eeeeec;stroke-width:0.938894"
       cx="860.05194"
       cy="359.09988"
       rx="17.876591"
       ry="8.1117601" />
    <path
       id="path4397"
       style="fill:url(#linearGradient4401);stroke-width:1.07417"
       d="m 886.028,353.0891 c -11.07551,0 -20.04505,6.09853 -20.04505,13.63944 0,0.6808 0.0913,1.35958 0.2327,2.0137 v 83.24343 c -0.47883,1.18904 -0.76457,2.4308 -0.76457,3.72332 0,7.77851 9.28573,14.09534 20.70919,14.09534 11.42417,0 20.67603,-6.31695 20.67603,-14.09534 0,-1.29252 -0.28572,-2.5344 -0.7645,-3.72332 v -84.8018 h -0.033 c 0.0106,-0.15167 0.033,-0.30303 0.033,-0.45592 0,-7.54114 -8.96952,-13.63943 -20.04504,-13.63943 z" />
    <ellipse
       id="path4399"
       style="opacity:0.57959;fill:#eeeeec;stroke-width:0.993976"
       cx="885.60583"
       cy="362.01434"
       rx="18.92511"
       ry="8.5877581" />
    <path
       id="path60060"
       style="fill:#ffffff;stroke-width:1.07417"
       d="m 413.17607,256.50941 c -13.63565,0 -25.04876,10.87456 -27.97664,25.44375 -9.95038,0.15451 -18.48364,7.03723 -22.2937,16.83082 -0.0525,-0.0223 -0.10432,-0.0498 -0.157,-0.0718 -3.07779,-1.28804 -6.39101,-2.00969 -9.85925,-2.00969 -15.85517,0 -28.73021,14.71548 -28.73021,32.8371 0,18.12161 12.87504,32.80035 28.73021,32.80035 0.49547,0 0.98645,-0.008 1.4758,-0.0358 2.76099,-0.15996 5.41136,-0.76854 7.91252,-1.75842 3.44604,10.624 12.39577,18.19511 22.88952,18.19511 8.12402,0 15.31462,-4.54108 19.74965,-11.51951 6.73422,6.66733 15.51054,10.6944 25.11908,10.6944 13.28499,0 25.00758,-7.69492 31.90126,-19.4147 5.19262,5.91685 12.37166,9.58194 20.28417,9.58194 11.99588,0 22.23945,-8.40623 26.5318,-20.34835 4.5144,5.46555 10.92781,8.86421 18.02345,8.86421 7.60486,0 14.42339,-3.9174 18.96492,-10.08426 4.90245,4.45956 11.11369,7.14162 17.86571,7.14162 1.17376,0 2.31708,-0.0947 3.45387,-0.25121 4.53983,5.97944 11.24331,9.76133 18.71373,9.76133 12.09635,0 22.13897,-9.93244 24.30323,-23.03902 11.88736,-0.99697 21.25679,-12.3567 21.25679,-26.1971 0,-14.49729 -10.26869,-26.23385 -22.95283,-26.23385 -9.19972,0 -17.12017,6.1804 -20.78655,15.10823 -5.13274,-8.91083 -13.95617,-14.78554 -23.98875,-14.78554 -8.02313,0 -15.29451,3.76845 -20.50321,9.8331 -2.83383,-14.71548 -14.31286,-25.73084 -28.03894,-25.73084 -7.72291,0 -14.71576,3.48147 -19.87523,9.1513 -4.56103,-11.22254 -14.49071,-19.01967 -26.02941,-19.01967 -9.342,0 -17.64767,5.12998 -22.88953,13.02736 -1.75934,-0.45332 -3.5843,-0.71774 -5.46341,-0.71774 -0.65201,0 -1.30739,0.0511 -1.94673,0.1076 -4.71073,-10.76065 -14.44046,-18.15836 -25.68377,-18.15836 z" />
    <g
       id="g4329"
       transform="matrix(-1.4529891,0,0,1.6606884,804.9737,98.444862)">
      <path
         id="path60176"
         style="fill:#3e6d05"
         d="m 404.12,165.85 c -7.8847,-1.8044 -13.22,-8.8291 -13.227,-16.587 -5.7357,-1.3949 -9.902,-5.9959 -10.971,-11.455 -0.033,0.004 -0.0654,0.005 -0.0983,0.01 -1.9288,0.24435 -3.9211,0.16055 -5.9265,-0.29841 -9.1677,-2.0981 -14.901,-11.234 -12.803,-20.401 2.0981,-9.1677 11.234,-14.901 20.401,-12.803 0.28649,0.0656 0.56631,0.14663 0.84599,0.22561 1.578,0.44628 3.066,1.1043 4.3977,1.9361 3.2227,-4.9188 9.2581,-7.5627 15.326,-6.174 4.6976,1.0751 8.3353,4.3151 10.092,8.4326 4.6659,-2.4819 10.208,-3.338 15.765,-2.0664 7.6818,1.758 13.556,7.1851 16.185,14.027 3.6876,-2.3063 8.2617,-3.2065 12.837,-2.1595 6.9362,1.5874 11.897,7.2004 12.997,13.81 3.2432,-2.1677 7.3402,-3.0327 11.443,-2.0937 4.3974,1.0064 7.89,3.876 9.8022,7.597 2.0857,-1.0004 4.3789,-1.5752 6.7592,-1.6589 l -7.341,32.077 c -2.7438,-1.4445 -4.9997,-3.5916 -6.5743,-6.153 -3.3424,7.0697 -11.253,11.146 -19.19,9.3291 -4.4656,-1.022 -8.128,-3.7143 -10.455,-7.2655 -3.9367,5.074 -10.579,7.7092 -17.251,6.1822 -5.4018,-1.2362 -9.5909,-4.947 -11.708,-9.636 -1.0698,-0.003 -2.1652,-0.11081 -3.2518,-0.35948 -0.37703,-0.0863 -0.75003,-0.20571 -1.1132,-0.31887 -3.9698,4.8206 -10.439,7.2925 -16.941,5.8046 z" />
      <path
         id="path60142"
         style="fill:#325804"
         d="m 475.08,146.36 c -8.0333,-0.94363 -15.276,2.6955 -17.696,8.4122 -5.8694,-0.62582 -11.249,1.5641 -13.961,5.2796 -0.0299,-0.0126 -0.0603,-0.0228 -0.0902,-0.0354 -1.7518,-0.73631 -3.6658,-1.249 -5.709,-1.489 -9.3405,-1.0972 -17.616,3.9834 -18.481,11.346 -0.86481,7.3623 6.0083,14.222 15.349,15.32 0.29189,0.0343 0.5823,0.0551 0.8719,0.0777 1.6342,0.12611 3.2491,0.0702 4.7699,-0.15894 1.5231,4.5549 6.4197,8.244 12.602,8.9702 4.7861,0.56219 9.2416,-0.77698 12.188,-3.3054 3.6492,3.1748 8.635,5.4041 14.296,6.0691 7.8266,0.91934 15.082,-1.387 19.702,-5.6716 2.7767,2.7633 6.8312,4.7458 11.492,5.2933 7.0669,0.83012 13.515,-1.8765 16.614,-6.4313 2.3987,2.533 6.0121,4.352 10.192,4.843 4.4803,0.52627 8.683,-0.58175 11.653,-2.773 1.6651,1.3388 3.6594,2.4238 5.8889,3.1719 l 3.0259,-25.76 c -3.0496,0.27353 -5.8555,1.2056 -8.1448,2.6394 -0.9672,-6.1748 -7.1949,-11.46 -15.282,-12.41 -4.5498,-0.53444 -8.8582,0.39389 -12.169,2.3404 -2.1515,-4.8752 -7.6258,-8.7329 -14.424,-9.5315 -5.5036,-0.64648 -10.628,0.88067 -14.093,3.7264 -1.0148,-0.30591 -2.0863,-0.54268 -3.1933,-0.67272 -0.38413,-0.0451 -0.77476,-0.0646 -1.1541,-0.0859 -2.2617,-4.6979 -7.6228,-8.3854 -14.247,-9.1634 z" />
      <path
         id="path60174"
         style="fill:#417305"
         d="m 470.19,170.23 c -8.0886,0 -14.857,-5.6573 -16.594,-13.219 -5.9024,-0.0802 -10.99,-3.6358 -13.25,-8.7188 -0.0312,0.0116 -0.0626,0.0198 -0.0937,0.0312 -1.8257,0.66849 -3.7865,1.0312 -5.8438,1.0312 -9.4047,0 -17.031,-7.6265 -17.031,-17.031 0,-9.4047 7.6265,-17.031 17.031,-17.031 0.2939,0 0.58475,0.0166 0.875,0.0312 1.6378,0.083 3.2351,0.39248 4.7188,0.90625 2.0441,-5.5138 7.3376,-9.4375 13.562,-9.4375 4.819,0 9.0879,2.3468 11.719,5.9688 3.9946,-3.4603 9.2065,-5.5312 14.906,-5.5312 7.8804,0 14.817,3.9799 18.906,10.062 3.0801,-3.0708 7.3382,-4.9688 12.031,-4.9688 7.1155,0 13.204,4.3648 15.75,10.562 2.6778,-2.8366 6.4787,-4.5938 10.688,-4.5938 4.511,0 8.5558,2.0182 11.25,5.2188 1.8099,-1.4405 3.9171,-2.5124 6.2187,-3.125 v 32.906 c -2.9969,-0.79603 -5.6749,-2.3857 -7.7812,-4.5312 -1.681,7.6372 -8.4828,13.375 -16.625,13.375 -4.5811,0 -8.7518,-1.8074 -11.812,-4.75 -2.7056,5.8244 -8.5926,9.875 -15.438,9.875 -5.5415,0 -10.453,-2.6827 -13.562,-6.7812 -1.0436,0.23526 -2.1353,0.375 -3.25,0.375 -0.38677,0 -0.77701,-0.0332 -1.1562,-0.0625 -2.7943,5.5847 -8.5491,9.4375 -15.219,9.4375 z" />
      <path
         id="path60093"
         style="fill:#4e8a06"
         d="m 355.01,114.47 c -8.0886,0 -14.858,5.6438 -16.595,13.205 -5.9024,0.0802 -10.964,3.6523 -13.224,8.7352 -0.0312,-0.0116 -0.0619,-0.0258 -0.0931,-0.0373 -1.8257,-0.66849 -3.791,-1.043 -5.8483,-1.043 -9.4047,0 -17.042,7.6374 -17.042,17.042 0,9.4047 7.6374,17.023 17.042,17.023 0.2939,0 0.58514,-0.004 0.87539,-0.0186 1.6378,-0.083 3.2099,-0.39887 4.6936,-0.91264 2.0441,5.5138 7.3529,9.443 13.578,9.443 4.819,0 9.0844,-2.3568 11.715,-5.9787 3.9946,3.4603 9.2004,5.5503 14.9,5.5503 7.8804,0 14.834,-3.9936 18.923,-10.076 3.0801,3.0708 7.3389,4.9729 12.032,4.9729 7.1155,0 13.192,-4.3628 15.738,-10.561 2.6778,2.8366 6.4821,4.6004 10.691,4.6004 4.5111,0 8.5554,-2.0331 11.25,-5.2337 2.9081,2.3145 6.5922,3.7064 10.598,3.7064 0.69624,0 1.3744,-0.0492 2.0488,-0.13038 2.6929,3.1033 6.6693,5.0661 11.101,5.0661 7.1755,0 13.133,-5.1549 14.416,-11.957 7.0516,-0.51742 12.609,-6.4128 12.609,-13.596 0,-7.5238 -6.0913,-13.615 -13.615,-13.615 -5.4571,0 -10.155,3.2076 -12.33,7.8412 -3.0446,-4.6246 -8.2788,-7.6736 -14.23,-7.6736 -4.7592,0 -9.0723,1.9558 -12.162,5.1033 -1.681,-7.6372 -8.4901,-13.354 -16.632,-13.354 -4.5811,0 -8.729,1.8068 -11.79,4.7494 -2.7056,-5.8244 -8.5954,-9.8714 -15.44,-9.8714 -5.5415,0 -10.468,2.6624 -13.578,6.761 -1.0436,-0.23526 -2.1261,-0.3725 -3.2408,-0.3725 -0.38677,0 -0.77553,0.0265 -1.1548,0.0558 -2.7943,-5.5847 -8.5657,-9.4244 -15.235,-9.4244 z" />
      <path
         id="path60111"
         sodipodi:nodetypes="cccsssc"
         style="fill:#a56a0f"
         d="m 385.43,168.44 c -1.6219,-0.46341 -14.644,15.926 -0.60224,32.822 -7.817,-2.1796 -7.8291,-7.2268 -15.959,-3.3123 3.781,-7.2595 4.9196,-12.298 4.8096,-16.058 -0.21839,-7.4687 -5.3636,-9.8915 -4.5085,-14.656 0.77614,-4.3252 0.69707,4.5838 5.7521,5.562 4.2766,0.82758 5.7156,-5.2609 10.508,-4.3575 z" />
      <path
         id="path60113"
         sodipodi:nodetypes="cccsssc"
         style="fill:#905d0d"
         d="m 422.36,166.73 c -1.6417,-0.46905 -14.823,16.12 -0.60958,33.222 -7.9122,-2.2062 -7.9244,-7.3149 -16.154,-3.3527 3.8271,-7.348 4.9795,-12.448 4.8682,-16.253 -0.22104,-7.5596 -12.95,-10.992 -8.0685,-10.568 3.9859,0.34633 4.363,3.4205 9.4796,4.4106 4.3287,0.83765 5.6328,-8.3728 10.484,-7.4585 z" />
      <path
         id="path60095"
         style="fill:#4e9a06"
         d="m 418.01,122.47 c -8.0886,0 -14.858,5.6438 -16.595,13.205 -5.9024,0.0802 -10.964,3.6523 -13.224,8.7352 -0.0312,-0.0116 -0.0619,-0.0258 -0.0931,-0.0373 -1.8257,-0.66849 -3.791,-1.043 -5.8483,-1.043 -9.4047,0 -17.042,7.6374 -17.042,17.042 0,9.4047 7.6374,17.023 17.042,17.023 0.2939,0 0.58514,-0.004 0.87539,-0.0186 1.6378,-0.083 3.2099,-0.39887 4.6936,-0.91264 2.0441,5.5138 7.3529,9.443 13.578,9.443 4.819,0 9.0844,-2.3568 11.715,-5.9787 3.9946,3.4603 9.2004,5.5503 14.9,5.5503 7.8804,0 14.834,-3.9936 18.923,-10.076 3.0801,3.0708 7.3389,4.9729 12.032,4.9729 7.1155,0 13.192,-4.3628 15.738,-10.561 2.6778,2.8366 6.4821,4.6004 10.691,4.6004 4.5111,0 8.5554,-2.0331 11.25,-5.2337 2.9081,2.3145 6.5922,3.7064 10.598,3.7064 0.69624,0 1.3744,-0.0492 2.0488,-0.13038 2.6929,3.1033 6.6693,5.0661 11.101,5.0661 7.1754,0 13.133,-5.1549 14.416,-11.957 7.0515,-0.51742 12.609,-6.4128 12.609,-13.596 0,-7.5238 -6.0913,-13.615 -13.615,-13.615 -5.4571,0 -10.155,3.2076 -12.33,7.8412 -3.0446,-4.6246 -8.2787,-7.6736 -14.23,-7.6736 -4.7592,0 -9.0723,1.9558 -12.162,5.1033 -1.681,-7.6372 -8.4901,-13.354 -16.632,-13.354 -4.5811,0 -8.729,1.8068 -11.79,4.7494 -2.7056,-5.8244 -8.5954,-9.8714 -15.44,-9.8714 -5.5415,0 -10.468,2.6624 -13.578,6.761 -1.0436,-0.23526 -2.1261,-0.3725 -3.2408,-0.3725 -0.38677,0 -0.77553,0.0265 -1.1548,0.0558 -2.7943,-5.5847 -8.5657,-9.4244 -15.235,-9.4244 z" />
      <path
         id="path60107"
         sodipodi:nodetypes="cscsc"
         style="fill:#a56a0f"
         d="m 488.87,172.47 c 0,0 9.4056,33.591 1.0077,36.615 -8.3978,3.0232 11.421,-2.6873 20.491,1.6796 0,0 -18.811,-33.591 -13.437,-38.294 5.3746,-4.7028 -7.3901,0 -8.0619,0 z" />
      <path
         id="path60109"
         sodipodi:nodetypes="cccsssc"
         style="fill:#a56a0f"
         d="m 446.36,163.75 c -2.3816,-0.68046 -21.504,23.386 -0.88432,48.195 -11.478,-3.2005 -11.496,-10.612 -23.434,-4.8638 5.552,-10.66 7.2238,-18.058 7.0624,-23.579 -0.32067,-10.967 -18.787,-15.946 -11.705,-15.331 5.7823,0.50242 6.3295,4.9621 13.752,6.3985 6.2797,1.2152 8.1716,-12.147 15.209,-10.82 z" />
      <path
         id="path60097"
         style="fill:#4e8a06"
         d="m 473.02,124.47 c -8.0886,0 -14.857,5.6573 -16.594,13.219 -5.9024,0.0802 -10.99,3.6358 -13.25,8.7188 -0.0312,-0.0116 -0.0625,-0.0197 -0.0937,-0.0312 -1.8257,-0.66849 -3.7865,-1.0312 -5.8438,-1.0312 -9.4047,0 -17.031,7.6265 -17.031,17.031 0,9.4047 7.6265,17.031 17.031,17.031 0.2939,0 0.58475,-0.0166 0.875,-0.0312 1.6378,-0.083 3.2351,-0.39248 4.7188,-0.90625 2.0441,5.5138 7.3376,9.4375 13.562,9.4375 4.819,0 9.0879,-2.3468 11.719,-5.9688 3.9946,3.4603 9.2065,5.5312 14.906,5.5312 7.8804,0 14.817,-3.9799 18.906,-10.062 3.0801,3.0708 7.3382,4.9688 12.031,4.9688 7.1155,0 13.204,-4.3648 15.75,-10.562 2.6778,2.8366 6.4787,4.5938 10.688,4.5938 4.5111,0 8.5558,-2.0182 11.25,-5.2188 1.81,1.4405 3.9172,2.5124 6.2188,3.125 l -10e-5,-32.906 c -2.9969,0.79603 -5.6749,2.3857 -7.7812,4.5312 -1.681,-7.6372 -8.4828,-13.375 -16.625,-13.375 -4.5811,0 -8.7518,1.8074 -11.812,4.75 -2.7056,-5.8244 -8.5926,-9.875 -15.438,-9.875 -5.5415,0 -10.453,2.6827 -13.562,6.7812 -1.0436,-0.23526 -2.1353,-0.375 -3.25,-0.375 -0.38677,0 -0.77701,0.0332 -1.1562,0.0625 -2.7943,-5.5847 -8.5491,-9.4375 -15.219,-9.4375 z" />
      <path
         id="path60099"
         sodipodi:nodetypes="cscsc"
         style="fill:#c17d11"
         d="m 339.86,158.77 c 0,0 14,50 1.5,54.5 -12.5,4.5 17,-4 30.5,2.5 0,0 -28,-50 -20,-57 8,-7 -11,0 -12,0 z" />
      <path
         id="path60103"
         sodipodi:nodetypes="cccsssc"
         style="fill:#c17d11"
         d="m 479.86,170.27 c -2.6931,-0.76947 -24.317,26.445 -1,54.5 -12.98,-3.6192 -13,-12 -26.5,-5.5 6.2783,-12.054 8.1688,-20.42 7.9863,-26.663 -0.36262,-12.402 -8.9061,-16.425 -7.4863,-24.337 1.2888,-7.1819 1.1575,7.6112 9.5512,9.2355 7.1012,1.3742 9.4905,-8.7355 17.449,-7.2355 z" />
      <path
         id="path60105"
         sodipodi:nodetypes="cccsssc"
         style="fill:#c17d11"
         d="m 548.86,162.77 c -2.6931,-0.76947 -24.317,26.445 -1,54.5 -12.98,-3.6192 -13,-12 -26.5,-5.5 6.2783,-12.054 8.1688,-20.42 7.9863,-26.663 -0.3626,-12.402 -21.245,-18.032 -13.236,-17.337 6.5388,0.56814 7.1575,5.6112 15.551,7.2355 7.1012,1.3742 9.2405,-13.736 17.199,-12.236 z" />
      <path
         id="path60144"
         style="fill:url(#linearGradient4345)"
         d="m 505.55,129.34 c -7.6152,0 -13.781,6.166 -13.781,13.781 0,1.2019 0.17981,2.3573 0.46875,3.4688 -4.2778,2.341 -7.1875,6.8734 -7.1875,12.094 0,6.5835 4.6106,12.066 10.781,13.438 1.5957,5.3157 6.5397,9.1875 12.375,9.1875 7.127,0 12.906,-5.7792 12.906,-12.906 0,-1.3809 -0.2235,-2.7235 -0.625,-3.9688 2.5499,-2.3575 4.1563,-5.7222 4.1563,-9.4688 0,-4.3164 -2.1203,-8.126 -5.375,-10.469 0.045,-0.45097 0.062,-0.91217 0.062,-1.375 0,-7.6152 -6.1661,-13.781 -13.781,-13.781 z" />
    </g>
    <rect
       style="fill:#a200ff;stroke-width:1.00694;opacity:0.73162939;fill-opacity:1"
       id="rect2944"
       width="1063.1664"
       height="450.41794"
       x="-4.7978916"
       y="274.26999" />
  </g>
  <metadata
     id="metadata2282">
    <rdf:RDF>
      <cc:Work>
        <dc:format>image/svg+xml</dc:format>
        <dc:type
           rdf:resource="http://purl.org/dc/dcmitype/StillImage" />
        <cc:license
           rdf:resource="http://creativecommons.org/licenses/publicdomain/" />
        <dc:publisher>
          <cc:Agent
             rdf:about="http://openclipart.org/">
            <dc:title>Openclipart</dc:title>
          </cc:Agent>
        </dc:publisher>
        <dc:title></dc:title>
        <dc:date>2010-03-15T22:56:29</dc:date>
        <dc:description>A simple landscape.</dc:description>
        <dc:source>https://openclipart.org/detail/31861/landscape-with-red-farm-by-rg1024</dc:source>
        <dc:creator>
          <cc:Agent>
            <dc:title>rg1024</dc:title>
          </cc:Agent>
        </dc:creator>
        <dc:subject>
          <rdf:Bag>
            <rdf:li>agriculture</rdf:li>
            <rdf:li>cartoon</rdf:li>
            <rdf:li>farm</rdf:li>
            <rdf:li>landscape</rdf:li>
            <rdf:li>nature</rdf:li>
            <rdf:li>trees</rdf:li>
          </rdf:Bag>
        </dc:subject>
      </cc:Work>
      <cc:License
         rdf:about="http://creativecommons.org/licenses/publicdomain/">
        <cc:permits
           rdf:resource="http://creativecommons.org/ns#Reproduction" />
        <cc:permits
           rdf:resource="http://creativecommons.org/ns#Distribution" />
        <cc:permits
           rdf:resource="http://creativecommons.org/ns#DerivativeWorks" />
      </cc:License>
    </rdf:RDF>
  </metadata>
</svg>
